<svg width="2040" height="1184" viewBox="1052 136 2040 1184" fill="none" xmlns="http://www.w3.org/2000/svg">
<path d="M1208.92 161.128C1146.7 160.211 1072 157.306 1072 157.306C1072 157.306 1076.41 329.367 1079.47 386.619C1082.61 444.023 1092.54 558.527 1094.41 615.931C1096.28 673.26 1096.28 787.916 1094.41 845.244C1092.54 902.649 1082.61 1017.23 1079.47 1074.56C1076.41 1131.81 1072 1303.87 1072 1303.87C1072 1303.87 1146.7 1301.04 1208.92 1300.05C1271.22 1299.13 1395.66 1295.77 1457.96 1296.23C1520.25 1296.69 1706.92 1303.87 1706.92 1303.87L1677.26 1273.52C1677.26 1273.52 1519.88 1137.62 1470.58 1088.77C1416.13 1034.89 1315.29 918.93 1263.89 861.984C1234.39 829.269 1146.7 730.588 1146.7 730.588C1146.7 730.588 1234.32 631.754 1263.89 599.199C1315.06 542.941 1416.65 429.737 1470.58 376.231C1520.25 326.929 1677.26 187.659 1677.26 187.659L1706.92 157.383C1706.92 157.383 1709.68 367.67 1714.39 463.056C1716.7 510.906 1725.59 682.661 1725.59 730.588C1725.59 778.514 1716.7 950.269 1714.39 998.119C1709.68 1093.59 1706.92 1303.87 1706.92 1303.87C1706.92 1303.87 1720.36 1288.51 1736.12 1270.62C1751.89 1252.73 1769.96 1232.24 1779.22 1222.23C1808.58 1190.21 1868.34 1127.15 1898.74 1096.11C1928.17 1066 1987.7 1006.53 2018.25 977.634C2033.42 963.264 2080.4 921.682 2080.4 921.682C2080.4 921.682 2033.42 877.202 2018.25 861.915C1986.36 829.811 1893.66 730.588 1893.66 730.588C1893.66 730.588 1986.36 631.379 2018.25 599.268C2033.42 583.98 2080.4 539.494 2080.4 539.494C2080.4 539.494 2033.79 494.625 2018.25 479.727C1988.37 451.063 1927.72 394.645 1898.74 365.071C1867.89 333.579 1809.18 267.529 1779.22 235.127C1761.15 215.628 1706.92 157.306 1706.92 157.306C1706.92 157.306 1520.18 164.491 1457.96 164.95C1395.66 165.416 1271.22 162.122 1208.92 161.128Z" fill="#5E0A60"></path>
<path d="M2940.08 1300.05C3002.3 1300.96 3077 1303.87 3077 1303.87C3077 1303.87 3072.59 1131.81 3069.53 1074.56C3066.39 1017.15 3056.46 902.649 3054.59 845.244C3052.72 787.916 3052.72 673.26 3054.59 615.931C3056.46 558.527 3066.39 443.947 3069.53 386.619C3072.59 329.367 3077 157.306 3077 157.306C3077 157.306 3002.3 160.134 2940.08 161.128C2877.78 162.045 2753.34 165.409 2691.04 164.95C2628.75 164.484 2442.08 157.306 2442.08 157.306L2471.74 187.652C2471.74 187.652 2629.12 323.558 2678.42 372.401C2732.87 426.29 2833.71 542.246 2885.1 599.192C2914.61 631.907 3002.3 730.588 3002.3 730.588C3002.3 730.588 2914.68 829.421 2885.1 861.976C2833.94 918.234 2732.35 1031.44 2678.42 1084.94C2628.75 1134.25 2471.74 1273.52 2471.74 1273.52L2442.08 1303.79C2442.08 1303.79 2439.32 1093.51 2434.61 998.119C2432.3 950.269 2423.41 778.514 2423.41 730.588C2423.41 682.661 2432.3 510.906 2434.61 463.056C2439.32 367.586 2442.08 157.306 2442.08 157.306C2442.08 157.306 2428.64 172.67 2412.87 190.557C2397.11 208.443 2379.04 228.936 2369.78 238.941C2340.42 270.969 2280.66 334.03 2250.26 365.063C2220.83 395.18 2161.3 454.648 2130.75 483.542C2115.58 497.912 2068.6 539.494 2068.6 539.494C2068.6 539.494 2115.58 583.973 2130.75 599.26C2162.64 631.364 2255.34 730.588 2255.34 730.588C2255.34 730.588 2162.64 829.796 2130.75 861.907C2115.58 877.195 2068.6 921.681 2068.6 921.681C2068.6 921.681 2115.21 966.55 2130.75 981.448C2160.63 1010.11 2221.28 1066.53 2250.26 1096.1C2281.11 1127.6 2339.82 1193.65 2369.78 1226.05C2387.85 1245.55 2442.08 1303.87 2442.08 1303.87C2442.08 1303.87 2628.82 1296.68 2691.04 1296.23C2753.34 1295.76 2877.78 1299.05 2940.08 1300.05Z" fill="#5E0A60"></path>
</svg>